<?xml version="1.0" encoding="UTF-8" standalone="no"?>
<!DOCTYPE svg PUBLIC "-//W3C//DTD SVG 1.1//EN"
 "http://www.w3.org/Graphics/SVG/1.1/DTD/svg11.dtd">
<!-- Generated by graphviz version 2.40.1 (20161225.0304)
 -->
<!-- Title: %3 Pages: 1 -->
<svg width="590pt" height="404pt"
 viewBox="0.00 0.00 590.07 404.00" xmlns="http://www.w3.org/2000/svg" xmlns:xlink="http://www.w3.org/1999/xlink">
<g id="graph0" class="graph" transform="scale(1 1) rotate(0) translate(4 400)">
<title>%3</title>
<polygon fill="#ffffff" stroke="transparent" points="-4,4 -4,-400 586.075,-400 586.075,4 -4,4"/>
<!-- [root] aws_instance.firstserver -->
<g id="node1" class="node">
<title>[root] aws_instance.firstserver</title>
<polygon fill="none" stroke="#000000" points="518.7907,-252 371.7907,-252 371.7907,-216 518.7907,-216 518.7907,-252"/>
<text text-anchor="middle" x="445.2907" y="-230.3" font-family="Times,serif" font-size="14.00" fill="#000000">aws_instance.firstserver</text>
</g>
<!-- [root] aws_subnet.subnet2 -->
<g id="node4" class="node">
<title>[root] aws_subnet.subnet2</title>
<polygon fill="none" stroke="#000000" points="409.7907,-180 284.7907,-180 284.7907,-144 409.7907,-144 409.7907,-180"/>
<text text-anchor="middle" x="347.2907" y="-158.3" font-family="Times,serif" font-size="14.00" fill="#000000">aws_subnet.subnet2</text>
</g>
<!-- [root] aws_instance.firstserver&#45;&gt;[root] aws_subnet.subnet2 -->
<g id="edge1" class="edge">
<title>[root] aws_instance.firstserver&#45;&gt;[root] aws_subnet.subnet2</title>
<path fill="none" stroke="#000000" d="M420.5611,-215.8314C408.3745,-206.8779 393.5083,-195.9558 380.3595,-186.2955"/>
<polygon fill="#000000" stroke="#000000" points="382.1434,-183.263 372.0123,-180.1628 377.9988,-188.9042 382.1434,-183.263"/>
</g>
<!-- [root] data.aws_ami.ubuntu -->
<g id="node6" class="node">
<title>[root] data.aws_ami.ubuntu</title>
<polygon fill="none" stroke="#000000" points="508.7907,-108 375.7907,-108 375.7907,-72 508.7907,-72 508.7907,-108"/>
<text text-anchor="middle" x="442.2907" y="-86.3" font-family="Times,serif" font-size="14.00" fill="#000000">data.aws_ami.ubuntu</text>
</g>
<!-- [root] aws_instance.firstserver&#45;&gt;[root] data.aws_ami.ubuntu -->
<g id="edge2" class="edge">
<title>[root] aws_instance.firstserver&#45;&gt;[root] data.aws_ami.ubuntu</title>
<path fill="none" stroke="#000000" d="M444.9107,-215.7623C444.399,-191.201 443.4833,-147.2474 442.8814,-118.3541"/>
<polygon fill="#000000" stroke="#000000" points="446.3751,-118.0145 442.6675,-108.0896 439.3767,-118.1604 446.3751,-118.0145"/>
</g>
<!-- [root] aws_security_group.subnetsecurity -->
<g id="node2" class="node">
<title>[root] aws_security_group.subnetsecurity</title>
<polygon fill="none" stroke="#000000" points="353.7907,-252 146.7907,-252 146.7907,-216 353.7907,-216 353.7907,-252"/>
<text text-anchor="middle" x="250.2907" y="-230.3" font-family="Times,serif" font-size="14.00" fill="#000000">aws_security_group.subnetsecurity</text>
</g>
<!-- [root] aws_vpc.environment&#45;example&#45;two -->
<g id="node5" class="node">
<title>[root] aws_vpc.environment&#45;example&#45;two</title>
<polygon fill="none" stroke="#000000" points="357.2907,-108 145.2907,-108 145.2907,-72 357.2907,-72 357.2907,-108"/>
<text text-anchor="middle" x="251.2907" y="-86.3" font-family="Times,serif" font-size="14.00" fill="#000000">aws_vpc.environment&#45;example&#45;two</text>
</g>
<!-- [root] aws_security_group.subnetsecurity&#45;&gt;[root] aws_vpc.environment&#45;example&#45;two -->
<g id="edge3" class="edge">
<title>[root] aws_security_group.subnetsecurity&#45;&gt;[root] aws_vpc.environment&#45;example&#45;two</title>
<path fill="none" stroke="#000000" d="M250.4173,-215.7623C250.5879,-191.201 250.8931,-147.2474 251.0938,-118.3541"/>
<polygon fill="#000000" stroke="#000000" points="254.5954,-118.1137 251.165,-108.0896 247.5956,-118.065 254.5954,-118.1137"/>
</g>
<!-- [root] aws_subnet.subnet1 -->
<g id="node3" class="node">
<title>[root] aws_subnet.subnet1</title>
<polygon fill="none" stroke="#000000" points="128.7907,-252 3.7907,-252 3.7907,-216 128.7907,-216 128.7907,-252"/>
<text text-anchor="middle" x="66.2907" y="-230.3" font-family="Times,serif" font-size="14.00" fill="#000000">aws_subnet.subnet1</text>
</g>
<!-- [root] aws_subnet.subnet1&#45;&gt;[root] aws_vpc.environment&#45;example&#45;two -->
<g id="edge4" class="edge">
<title>[root] aws_subnet.subnet1&#45;&gt;[root] aws_vpc.environment&#45;example&#45;two</title>
<path fill="none" stroke="#000000" d="M89.721,-215.7623C122.8045,-190.0108 183.2748,-142.942 220.1185,-114.2637"/>
<polygon fill="#000000" stroke="#000000" points="222.3091,-116.994 228.0505,-108.0896 218.0094,-111.4701 222.3091,-116.994"/>
</g>
<!-- [root] aws_subnet.subnet2&#45;&gt;[root] aws_vpc.environment&#45;example&#45;two -->
<g id="edge5" class="edge">
<title>[root] aws_subnet.subnet2&#45;&gt;[root] aws_vpc.environment&#45;example&#45;two</title>
<path fill="none" stroke="#000000" d="M323.0658,-143.8314C311.1279,-134.8779 296.5651,-123.9558 283.6846,-114.2955"/>
<polygon fill="#000000" stroke="#000000" points="285.6078,-111.3629 275.5078,-108.1628 281.4078,-116.9629 285.6078,-111.3629"/>
</g>
<!-- [root] provider.aws -->
<g id="node7" class="node">
<title>[root] provider.aws</title>
<polygon fill="none" stroke="#000000" points="346.2907,-36 266.3573,-18 346.2907,0 426.224,-18 346.2907,-36"/>
<text text-anchor="middle" x="346.2907" y="-14.3" font-family="Times,serif" font-size="14.00" fill="#000000">provider.aws</text>
</g>
<!-- [root] aws_vpc.environment&#45;example&#45;two&#45;&gt;[root] provider.aws -->
<g id="edge6" class="edge">
<title>[root] aws_vpc.environment&#45;example&#45;two&#45;&gt;[root] provider.aws</title>
<path fill="none" stroke="#000000" d="M275.2632,-71.8314C288.7369,-61.6197 305.5895,-48.8472 319.4974,-38.3065"/>
<polygon fill="#000000" stroke="#000000" points="321.8643,-40.9043 327.7199,-32.0747 317.6361,-35.3255 321.8643,-40.9043"/>
</g>
<!-- [root] data.aws_ami.ubuntu&#45;&gt;[root] provider.aws -->
<g id="edge7" class="edge">
<title>[root] data.aws_ami.ubuntu&#45;&gt;[root] provider.aws</title>
<path fill="none" stroke="#000000" d="M418.0658,-71.8314C404.3583,-61.5507 387.1899,-48.6744 373.0815,-38.0931"/>
<polygon fill="#000000" stroke="#000000" points="374.8507,-35.0451 364.7507,-31.845 370.6507,-40.6451 374.8507,-35.0451"/>
</g>
<!-- [root] meta.count&#45;boundary (EachMode fixup) -->
<g id="node8" class="node">
<title>[root] meta.count&#45;boundary (EachMode fixup)</title>
<ellipse fill="none" stroke="#000000" cx="405.2907" cy="-306" rx="176.5689" ry="18"/>
<text text-anchor="middle" x="405.2907" y="-302.3" font-family="Times,serif" font-size="14.00" fill="#000000">[root] meta.count&#45;boundary (EachMode fixup)</text>
</g>
<!-- [root] meta.count&#45;boundary (EachMode fixup)&#45;&gt;[root] aws_instance.firstserver -->
<g id="edge8" class="edge">
<title>[root] meta.count&#45;boundary (EachMode fixup)&#45;&gt;[root] aws_instance.firstserver</title>
<path fill="none" stroke="#000000" d="M415.3843,-287.8314C419.8504,-279.7925 425.1981,-270.1666 430.1286,-261.2918"/>
<polygon fill="#000000" stroke="#000000" points="433.2641,-262.8546 435.0611,-252.4133 427.145,-259.4551 433.2641,-262.8546"/>
</g>
<!-- [root] meta.count&#45;boundary (EachMode fixup)&#45;&gt;[root] aws_security_group.subnetsecurity -->
<g id="edge9" class="edge">
<title>[root] meta.count&#45;boundary (EachMode fixup)&#45;&gt;[root] aws_security_group.subnetsecurity</title>
<path fill="none" stroke="#000000" d="M367.3734,-288.3868C346.5918,-278.7334 320.6196,-266.6689 298.4205,-256.3571"/>
<polygon fill="#000000" stroke="#000000" points="299.7076,-253.0958 289.1638,-252.0572 296.7586,-259.4444 299.7076,-253.0958"/>
</g>
<!-- [root] meta.count&#45;boundary (EachMode fixup)&#45;&gt;[root] aws_subnet.subnet1 -->
<g id="edge10" class="edge">
<title>[root] meta.count&#45;boundary (EachMode fixup)&#45;&gt;[root] aws_subnet.subnet1</title>
<path fill="none" stroke="#000000" d="M321.1696,-290.1578C270.7323,-280.3982 205.1058,-267.2445 138.7619,-252.2889"/>
<polygon fill="#000000" stroke="#000000" points="139.4963,-248.8666 128.97,-250.0694 137.9489,-255.6934 139.4963,-248.8666"/>
</g>
<!-- [root] provider.aws (close) -->
<g id="node9" class="node">
<title>[root] provider.aws (close)</title>
<ellipse fill="none" stroke="#000000" cx="105.2907" cy="-306" rx="105.0817" ry="18"/>
<text text-anchor="middle" x="105.2907" y="-302.3" font-family="Times,serif" font-size="14.00" fill="#000000">[root] provider.aws (close)</text>
</g>
<!-- [root] provider.aws (close)&#45;&gt;[root] aws_instance.firstserver -->
<g id="edge11" class="edge">
<title>[root] provider.aws (close)&#45;&gt;[root] aws_instance.firstserver</title>
<path fill="none" stroke="#000000" d="M172.6889,-292.081C222.4281,-281.7656 292.0412,-267.2385 361.7117,-252.3303"/>
<polygon fill="#000000" stroke="#000000" points="362.4959,-255.7418 371.5408,-250.2246 361.0295,-248.8971 362.4959,-255.7418"/>
</g>
<!-- [root] provider.aws (close)&#45;&gt;[root] aws_security_group.subnetsecurity -->
<g id="edge12" class="edge">
<title>[root] provider.aws (close)&#45;&gt;[root] aws_security_group.subnetsecurity</title>
<path fill="none" stroke="#000000" d="M139.6536,-288.937C159.1317,-279.2651 183.7438,-267.0439 204.8063,-256.5854"/>
<polygon fill="#000000" stroke="#000000" points="206.4955,-259.6544 213.8955,-252.0721 203.3823,-253.3847 206.4955,-259.6544"/>
</g>
<!-- [root] provider.aws (close)&#45;&gt;[root] aws_subnet.subnet1 -->
<g id="edge13" class="edge">
<title>[root] provider.aws (close)&#45;&gt;[root] aws_subnet.subnet1</title>
<path fill="none" stroke="#000000" d="M95.4493,-287.8314C91.0949,-279.7925 85.8809,-270.1666 81.0737,-261.2918"/>
<polygon fill="#000000" stroke="#000000" points="84.1049,-259.5392 76.2645,-252.4133 77.9499,-262.8732 84.1049,-259.5392"/>
</g>
<!-- [root] root -->
<g id="node10" class="node">
<title>[root] root</title>
<ellipse fill="none" stroke="#000000" cx="255.2907" cy="-378" rx="47.3916" ry="18"/>
<text text-anchor="middle" x="255.2907" y="-374.3" font-family="Times,serif" font-size="14.00" fill="#000000">[root] root</text>
</g>
<!-- [root] root&#45;&gt;[root] meta.count&#45;boundary (EachMode fixup) -->
<g id="edge14" class="edge">
<title>[root] root&#45;&gt;[root] meta.count&#45;boundary (EachMode fixup)</title>
<path fill="none" stroke="#000000" d="M284.9258,-363.7751C306.1998,-353.5636 335.2741,-339.608 359.5181,-327.9708"/>
<polygon fill="#000000" stroke="#000000" points="361.0464,-331.1196 368.547,-323.6369 358.0172,-324.809 361.0464,-331.1196"/>
</g>
<!-- [root] root&#45;&gt;[root] provider.aws (close) -->
<g id="edge15" class="edge">
<title>[root] root&#45;&gt;[root] provider.aws (close)</title>
<path fill="none" stroke="#000000" d="M225.6555,-363.7751C204.003,-353.3819 174.2701,-339.1101 149.7737,-327.3519"/>
<polygon fill="#000000" stroke="#000000" points="151.1992,-324.1538 140.6694,-322.9818 148.17,-330.4645 151.1992,-324.1538"/>
</g>
</g>
</svg>
